<?xml version="1.0" encoding="UTF-8"?>
<!-- Generator: Adobe Illustrator 24.0.0, SVG Export Plug-In . SVG Version: 6.00 Build 0)  -->
<svg version="1.1" id="Layer_1" xmlns="http://www.w3.org/2000/svg" xmlns:xlink="http://www.w3.org/1999/xlink" x="0px" y="0px" viewBox="0 0 844.3 161.3" style="enable-background:new 0 0 844.3 161.3;" xml:space="preserve">
<style type="text/css">
	.Arched_x0020_Green{fill:url(#SVGID_1_);stroke:#FFFFFF;stroke-width:0.25;stroke-miterlimit:1;}
	.st0{fill:#583E75;}
	.st1{fill:#4B5C66;}
</style>
<linearGradient id="SVGID_1_" gradientUnits="userSpaceOnUse" x1="308" y1="357.3777" x2="308.7071" y2="356.6706">
	<stop offset="0" style="stop-color:#1DA238"/>
	<stop offset="0.9831" style="stop-color:#24391D"/>
</linearGradient>
<path class="st0" d="M409.1,29.3h-13.3v-3.5c0-1.1,0-5.7-1.2-8c-1.3-2.6-5.9-4.5-10.6-4.5c-14.6,0-19.7,13.2-19.7,26.1  c0,3.8,0.4,11,3.7,16.5c5.2,8.6,13.9,9.8,17.8,9.8c2.5,0,12.3-0.1,23-7.8v13.3c-7.4,5.2-16.3,7.7-25.4,7.7  c-29.1,0-35.4-23.5-35.4-37.5C348.1,24.7,356.4,3,385,3c12.4,0,19.8,3.5,24.1,5.7V29.3z"/>
<path class="st0" d="M421.5,30.7c6.4-4,13.8-6,21.2-6c18.1,0,20.3,10,20.3,17.9V61c0,4.1,0.6,6.1,3.1,6.1c1.4,0,2.8-0.6,3.6-0.9V75  c-5.9,2.8-11,3.1-12.4,3.1c-2.8,0-6.7-0.7-8.5-6c-2.4,2-7,6-15.2,6c-8.4,0-16.4-3.4-16.4-14.4c0-10.6,9.1-14.4,13.4-15.7  c3.4-1,9.2-2.7,10.1-2.9l7.2-1.6c0-4.1-0.3-9.9-7.8-9.9c-7.1,0-7.1,3.9-7.1,7.9v1.3h-11.6V30.7z M448.1,51.4  c-9.8,2.7-16,4.6-16,10.9c0,3.6,2.5,6.7,6.7,6.7c1.6,0,3.2-0.5,4.5-1.3c2-1.1,4.7-3.2,4.7-10.6V51.4z"/>
<path class="st0" d="M491.5,25.8c0.4,2,0.5,2.9,0.9,7c2.6-3.5,6.3-8.1,15.1-8.1c5.9,0,11.9,2.1,14.5,9.6c3.2-6,9.6-9.6,16.4-9.6  c5.7,0,11.6,2.6,13.9,7.1c1.1,2.1,2.3,4.7,2.3,11.6v20.3c0,3.1,0,4.4,4.3,4.4h1.4v8.5h-26.6v-8.5h2c3,0,3.1-1.6,3.1-3.4V47.4  c0-4.4-0.1-10.8-6.6-10.8c-6.8,0-9.1,6.4-9.1,13.2v14c0,3.3,0.1,4.4,3.3,4.4h1.9v8.5H503v-8.5h1.4c3.5,0,3.5-0.8,3.6-3.8V46.8  c0-4,0-10.3-6.7-10.3c-2.6,0-6.2,1.2-8,6c-0.6,1.7-0.9,6.8-0.9,8.3v12.7c0,3.1,0,4.8,3.2,4.8h2v8.5h-26.2v-8.5h1.4  c4.4,0,4.4-1.3,4.4-4.4V40.1c0-2.3-0.1-4.1-3.3-4.1h-3.1v-8.2L491.5,25.8z"/>
<path class="st0" d="M579.5,2v29.2h0.2c1.5-2.3,5.4-7.4,14.6-7.4c16.7,0,20,16.4,20,24.9c0,10.9-4.9,28.5-23,28.5  c-7.5,0-11.6-3.4-14.4-5.9l-3.1,5.9h-9.5V17.4c0-3.8-0.4-5.4-3.8-5.4h-3V3.8L579.5,2z M578.8,51.6c0,5.2,1.3,14.5,9.8,14.5  c9.6,0,9.6-12.9,9.6-15.8c0-6.3-1.5-14.7-9.4-14.7C578.8,35.6,578.8,48.8,578.8,51.6z"/>
<path class="st0" d="M633.8,26c0.4,1.9,0.9,3.8,1,8.7h0.2c1.1-2.2,5.4-9.3,13.5-9.3c3,0,5,0.9,6.3,1.4v15.7h-9.4  c0-1.7,0-3.8-2.5-3.8c-2.3,0-8,2.5-8,17.1v8.7c0,2.8,0.4,3.8,4.1,3.8h2.7v8.5h-27.4v-8.5h1.5c3.8,0,4.4-0.8,4.4-4.4V40  c0-3.2-0.5-4.2-3.2-4.2h-3.2v-8.4L633.8,26z"/>
<path class="st0" d="M677.7,61.9c0,6.2,0,6.3,5.7,6.3v8.5h-27.2v-8.5h2.6c3.9,0,3.9-0.8,3.9-6.5V43.3c0-6.5,0-7.7-3.1-7.7  c-1,0-1.3,0-3.7,0.1v-8.4l21.9-2V61.9z M678.1,10.4c0,5.7-5.2,7.7-9.2,7.7c-3.8,0-9.6-1.4-9.6-7.6c0-2.7,1.5-7.5,9.4-7.5  C675.9,3,678.1,7,678.1,10.4z"/>
<path class="st0" d="M735.8,61.8c0,4.9,0.5,5.7,6.3,5.2v8.4L722,76.7c-0.8-3.2-0.9-4.8-1-6.9h-0.2c-1.1,2.1-4.6,8.4-14.7,8.4  c-17.3,0-20.2-16.9-20.2-25.4c0-16.5,8.8-28.3,21.7-28.3c2.2,0,7.9,0.1,13,5.5V19.4c0-4.5,0-6.3-3.8-6.3h-2.9V4.8l22-1.9V61.8z   M711.4,66.1c3.4,0,9.9-2.5,9.9-15.5c0-12.1-5.5-15.1-9.8-15.1c-6.9,0-9.5,7.4-9.5,15.4C702,53.4,702,66.1,711.4,66.1z"/>
<path class="st0" d="M795.2,35.4h-7.8c1,1.8,2.6,4.4,2.6,9.2c0,6.4-3.3,11.1-7.8,13.9c-3.9,2.4-8.4,2.9-13,3.1  c-4.2,0.2-8.7,0.4-8.7,3.5c0,2.7,5.3,3.2,7.7,3.2c0.8,0.1,5.1,0.2,5.8,0.2c13.3,0.3,21.6,3.7,21.6,14c0,18.1-23,18.1-28.7,18.1  c-11.5,0-25.5-1.7-25.5-12.3c0-8.5,9-10.2,12.1-10.7v-0.2c-2.5-0.7-7.1-2.4-7.1-7.8c0-5.7,5.5-8.7,10.1-10.1v-0.2  c-6.2-2.3-11-7.1-11-15.8c0-9.8,6.5-19.2,22.5-19.2c5.8,0,9,1.2,10.3,1.8h17V35.4z M755.6,86.4c0,5.5,10.5,5.7,13.2,5.7  c5.1,0,13.4-1,13.4-6.1c0-4.4-8-4.9-13.3-4.9C766.2,81.1,755.6,81.1,755.6,86.4z M760,43.6c0,4.2,1.8,10.3,7.6,10.3  c3.3,0,7.8-2,7.8-11c0-3.3-0.5-11-7.6-11C760.1,31.8,760,41.7,760,43.6z"/>
<path class="st0" d="M812.1,53.6c0.2,5.7,3.7,12.8,13.3,12.8c7.2,0,13-3.4,17.1-5.9v12.2c-3.9,2.2-10.7,5.8-21.3,5.8  c-20.5,0-24.6-16.7-24.6-26.1c0-13.7,7.5-27.9,25.1-27.9c22.4,0,22.2,22.1,22.2,29.2H812.1z M829.6,44.5  c-0.2-10.8-7.3-10.9-8.2-10.9c-5.2,0-8.8,4.8-9.2,10.9H829.6z"/>
<g>
	<path class="st1" d="M385.7,103.4v11.5h-7.2v-2.2c0-2.3-0.9-2.5-3.1-2.5h-9.4v11h7.2c1,0,1.3-0.1,1.3-1.4v-1.9h6.9v13.9h-6.9v-2.3   c0-0.8-0.2-1.4-1.3-1.4h-7.2v12.3h10.2c2.9,0,3-0.8,3-2.8V135h7.2v12.1h-34.2v-5.6h1.6c2.6,0,2.6-0.8,2.6-2.9v-26.8   c0-1.8-0.1-2.8-2.6-2.8h-1.6v-5.6H385.7z"/>
	<path class="st1" d="M421.4,138c0,3,0.3,3.5,3.8,3.2v5.1l-12.3,0.8c-0.5-2-0.6-3-0.6-4.2h-0.1c-0.7,1.3-2.8,5.1-9,5.1   c-10.6,0-12.4-10.3-12.4-15.5c0-10.1,5.4-17.3,13.3-17.3c1.3,0,4.9,0.1,7.9,3.3v-6.4c0-2.8,0-3.8-2.3-3.8H408v-5l13.4-1.1V138z    M406.5,140.6c2.1,0,6.1-1.5,6.1-9.4c0-7.4-3.3-9.2-6-9.2c-4.2,0-5.8,4.5-5.8,9.4C400.8,132.9,400.8,140.6,406.5,140.6z"/>
	<path class="st1" d="M440,115.7v19c0,2.1,0,6.1,4.1,6.1c5.5,0,5.5-6.3,5.5-8.3v-7.2c0-1.8-0.1-2.4-0.6-2.8   c-0.4-0.3-1.5-0.4-3.4-0.4v-5.1l13.2-1.2v22.7c0,1.8,0.1,2.8,1.7,2.8h2.2v5l-12.5,1c-0.4-1.7-0.6-2.9-0.6-4.4h-0.1   c-2.8,4.9-7.4,5.2-9.3,5.2c-2,0-7.1-0.5-9.1-5.5c-0.6-1.6-0.8-5.5-0.8-5.8v-10.9c0-2.2,0-2.5-0.3-3c-0.3-0.6-0.4-0.8-3.5-0.8v-5.1   L440,115.7z"/>
	<path class="st1" d="M492.6,128.6h-7.1v-2.9c0-1.6,0-4.5-4-4.5c-5.7,0-6.8,6.4-6.8,9.3c0,5.5,2.4,10.1,8.2,10.1   c3.3,0,6.5-1.3,9.4-3.1v7.1c-3.6,2.4-7.4,3.6-11.7,3.6c-12.5,0-14.8-10.5-14.8-15.6c0-12.4,8-17.4,16.1-17.4c0.8,0,5.5,0,10.7,2.7   V128.6z"/>
	<path class="st1" d="M499.7,119c3.9-2.5,8.4-3.7,13-3.7c11.1,0,12.4,6.1,12.4,11v11.2c0,2.5,0.4,3.7,1.9,3.7c0.9,0,1.7-0.4,2.2-0.6   v5.4c-3.6,1.7-6.7,1.9-7.6,1.9c-1.7,0-4.1-0.4-5.2-3.6c-1.4,1.2-4.3,3.6-9.3,3.6c-5.1,0-10-2.1-10-8.8c0-6.5,5.5-8.8,8.2-9.6   c2.1-0.6,5.6-1.6,6.2-1.8l4.4-1c0-2.5-0.2-6.1-4.8-6.1c-4.3,0-4.3,2.4-4.3,4.9v0.8h-7.1V119z M516,131.7c-6,1.6-9.8,2.8-9.8,6.7   c0,2.2,1.5,4.1,4.1,4.1c0.9,0,2-0.3,2.8-0.8c1.2-0.7,2.9-2,2.9-6.5V131.7z"/>
	<path class="st1" d="M543.7,106.6v9.6h7.4v6.6h-7.4v12.7c0,2,0,4.9,3,4.9c1.6,0,3.4-0.8,4.6-1.2v6.4c-4.1,2.1-7.6,2.1-8.8,2.1   c-8.3,0-8.3-6.5-8.3-9.3v-15.7h-3.8v-5.4c6.7-2.1,7.4-8.4,7.6-10.8H543.7z"/>
	<path class="st1" d="M567.3,138.1c0,3.8,0,3.9,3.5,3.9v5.2h-16.6v-5.2h1.6c2.4,0,2.4-0.5,2.4-4v-11.3c0-4,0-4.7-1.9-4.7   c-0.6,0-0.8,0-2.3,0.1v-5.1l13.4-1.2V138.1z M567.5,106.6c0,3.5-3.2,4.7-5.6,4.7c-2.3,0-5.9-0.9-5.9-4.6c0-1.6,0.9-4.6,5.7-4.6   C566.2,102.1,567.5,104.5,567.5,106.6z"/>
	<path class="st1" d="M589.4,148.2c-13.2,0-15.3-10.8-15.3-15.8c0-7,3.1-17.2,16-17.2c11,0,15.7,7.1,15.7,15.6   C605.8,139.3,601.7,148.2,589.4,148.2z M590,121.5c-6,0-6.5,7.8-6.5,10.5c0,1.1,0.1,9.8,6.6,9.8c5.5,0,6.4-6.5,6.4-10.6   C596.4,129.5,596.4,121.5,590,121.5z"/>
	<path class="st1" d="M625.5,147.1h-15.8v-5.2c3.3,0,3.5,0,3.5-3.7v-11.2c0-1.3,0-4-0.6-4.6c-0.5-0.4-1.6-0.4-3.3-0.3V117l12.5-1   c0.4,1.5,0.6,2.5,0.6,4.4h0.1c1.4-2.4,4.1-5.1,9.2-5.1c2.5,0,7.4,0.6,9.3,5.7c0.8,2,0.8,5.8,0.8,6.9v10.1c0,3.8,0,3.9,3.5,3.9v5.2   h-16.3v-5.2c3.1,0,3.1-0.1,3.1-4v-8.3c0-3.6-0.1-7.2-4.2-7.2c-5.4,0-5.4,6.2-5.4,8.5v6.9c0,3.8,0,4,3.1,4V147.1z"/>
	<path class="st1" d="M695.8,115.6c0-1.3,0-2.7-0.7-4c-1.3-2.3-4.5-3-6.7-3c-8.3,0-12.3,7.2-12.3,16.4c0,8.9,3.6,16.1,12.5,16.1   c3,0,5-0.9,5.9-1.2v-6.4c0-1.7-0.1-2.7-2.7-2.7h-1.7v-5.6H708v5.6h-1.8c-1.8,0-2.6,0.5-2.6,2.6v11.3c-3.2,1.6-8.1,3.8-15.4,3.8   c-8.5,0-12.7-2.4-16-5.7c-4.5-4.5-6.4-10.8-6.4-17.1c0-10.7,5.7-23.6,23.1-23.6c4.7,0,9.7,0.7,14.9,3.4v12.5h-8.1V115.6z"/>
	<path class="st1" d="M722.8,116.1c0.3,1.1,0.6,2.3,0.6,5.3h0.1c0.7-1.3,3.3-5.7,8.3-5.7c1.8,0,3,0.6,3.8,0.9v9.6h-5.7   c0-1.1,0-2.3-1.5-2.3c-1.4,0-4.9,1.5-4.9,10.5v5.3c0,1.7,0.3,2.3,2.5,2.3h1.6v5.2h-16.8v-5.2h0.9c2.3,0,2.7-0.5,2.7-2.7v-14.6   c0-1.9-0.3-2.6-2-2.6h-2V117L722.8,116.1z"/>
	<path class="st1" d="M753.5,148.2c-13.2,0-15.3-10.8-15.3-15.8c0-7,3.2-17.2,16-17.2c11,0,15.7,7.1,15.7,15.6   C769.9,139.3,765.7,148.2,753.5,148.2z M754,121.5c-6,0-6.5,7.8-6.5,10.5c0,1.1,0.1,9.8,6.6,9.8c5.5,0,6.4-6.5,6.4-10.6   C760.5,129.5,760.5,121.5,754,121.5z"/>
	<path class="st1" d="M785.9,115.7v19c0,2.1,0,6.1,4.1,6.1c5.5,0,5.5-6.3,5.5-8.3v-7.2c0-1.8-0.1-2.4-0.6-2.8   c-0.4-0.3-1.5-0.4-3.4-0.4v-5.1l13.2-1.2v22.7c0,1.8,0.1,2.8,1.7,2.8h2.2v5l-12.5,1c-0.4-1.7-0.6-2.9-0.6-4.4h-0.1   c-2.8,4.9-7.4,5.2-9.3,5.2c-2,0-7.1-0.5-9.1-5.5c-0.6-1.6-0.8-5.5-0.8-5.8v-10.9c0-2.2,0-2.5-0.3-3c-0.3-0.6-0.4-0.8-3.5-0.8v-5.1   L785.9,115.7z"/>
	<path class="st1" d="M823,152.3c0,2.6,0.4,2.9,2.9,2.9h1.3v5.2h-17.1v-5.2h0.9c2.2,0,2.8-0.1,2.8-3.2v-25.2c0-3.5-0.1-4.2-0.8-4.5   c-0.6-0.3-1.2-0.3-3.1-0.2v-5l12.5-0.9c0.4,2,0.5,3,0.5,4.3h0.1c1.2-1.9,3.4-5.2,9.1-5.2c8.6,0,12.2,7.8,12.2,15.4   c0,6.5-3,17.2-13.3,17.2c-3.9,0-6.1-1.7-8-3.4V152.3z M822.6,132.6c0,5.4,2.1,8.8,6,8.8c5.8,0,5.8-8,5.8-9.5c0-1.5,0-9.2-5.7-9.2   c-4.8,0-6.1,5.5-6.1,9V132.6z"/>
</g>
<path class="st1" d="M309,75.3c5.2-3.3,10.2-4.6,13.2-2.5c-2.7-5.9-7.1-7.1-11.5-6.4c-0.1-0.1-0.2-0.1-0.4-0.1c0,0-0.3,0-0.4,0.1  l-0.8,0.3c-2,0.5-4,1.4-5.6,2.3l-15.1,6.3l-0.2-0.3c2-7,9.9-10.1,14.1-10.2c-11.6-6-21.6,5.5-22.7,10.2c-0.4,2.9-0.5,5-0.4,6.7  l-0.6,2.1c0,0-2.3,3.4-9.2,5.7c-5.5,1.8-9.6-6.3-18.4-14.2l-13-12.6l1.6,0.9c1.6,1.6,3.3,3,6.1,4.9c4.2,2.5,9,6.6,11.7,7.5  c2.1-0.8,6.2-7.2,3.1-10.9c0.6-2.3,1.7-4,0.6-7.1c-1.6,1.5-3.2,3-3.9,4.6c-4.9-1.9-8.5-4.9-9-10.4c3.4-0.7,12.3,0.9,17.8,7  c4.4,5.1,10.3,5,13.9,3.8c3.7-1.2,6.3-7.4,5-9.6c-1,2.8-2.8,4.4-4.7,5.7c-4.5,2.9-10.7,0.3-14.2-3.5c-3.3-3.6-9.2-9.2-17.3-7.7  c0.8-3.1,3-5,6.8-5.6c6.3-0.6,10.9,0.6,14.1,4.5c-0.3,2.3-1.2,5.8-1.2,8.4c1.4-0.6,3.6-3.3,4.4-4.7c1.8,0.4,3.6-0.1,4.7-0.9  c0.9-0.8,3.8-5.9,4.1-8.1c-0.6-0.1-1.5-0.6-2.6-1.3l0.7-1.5c1.3,0.8,2.4,1.4,3.3,1.5c0,0,1.8-0.3,3.3-2c1.4-1.8,1.7-3.2,0.9-5.1  c-0.9-1.9-8.4-4-8.4-4h0c-2.1-1.5-4.3-2.8-6.8-4.1c-1.1-2.2-3.4-6-7.6-7.7c-3.7-1.8-6.8-3.3-8.8-4.5c-0.4-1.7-5.5-9.4-12.6-10.3  c-3.8-0.1-3.5-0.4-5,0.1c6.8,3.5,8.1,8.5,8,11.3c-3-3.4-8-11.3-15.9-14.2c-3.6,3.8-4.3,9.9-3.7,14.7c0.3,3.6,3.3,5.9,6.2,8.2  c-3.3-1.2-6.7-2.3-7.9-5.9c-1-3.3-1.3-6.1-0.1-9.3c-5,0.9-13.6-0.2-16.2-6.1c-1,1.8-0.2,7.1,1.5,10c0.6,0.8,1.2,1.6,1.9,2.4  c-5.2-0.7-14.8-1.8-19.8-2.5c0.9,3.5,9.1,6.2,8.9,12.5c-8.5-1.1-15.2-2.7-16.3-5.3c-1.5,4.6,3.1,9.2,8.7,12.6  c-6.4,4.6-12.8-3.6-15.2-3.8c1.6,4.5,4.5,11.1,8.4,12.4c-5,1.2-8.8,1.1-10.1-1c0.1,4.7,2.6,8,6,10.3c-8.3-3-12.2,1.6-16.2,0.8  c4.1,4.5,10.4,6.7,14,8.5c-7.6,2.6-17.3,5.6-19,2.8c0.3,10.9,16.3,8.6,21.5,12.9c-2.6,0.5-6.5,1.1-10.5,1.5  c-10.8,0.7-20.4-3.9-20.4-3.9c-30.1-17.7-48.4-14.4-61.7-10c-5.7,1.9-11.6,7.8-14.9,12.3c-2,0.1-4.3,0.2-6.8,0.3  c-9.5,0.2-19-0.7-26.2-3.2c-7.1-2.5-11.9-6.6-11.9-12.8c0-6.3,3.5-9.4,7-11c3.5-1.6,7-1.6,7-1.6c14.5,0,26.6,0,39.3,4  c12.8,4,26.3,8,43.6,8c18.3,0,28.2-5.1,33.5-10.9c5.3-5.8,6.1-12.3,6.1-14.9c0-4.1-1-9.6-5.5-14.1c-4.5-4.5-12.5-8-26.5-8  c-13.7,0-23.9,2-30.8,4c-4.4,1-14.2-5.3-14.9-10.2c-3.5,9.6,1.5,15.4,7.6,18.6c0.3,0.4,0.7,0.7,1.1,1.1c-3.4-0.5-6-1.8-7.4-4  c0.5,16.7,20.2,14.4,26.5,12.8c2.9-1,5.1-2,6.8-2.9c3.5-0.9,6.5-2.2,9.3-3.6c4.6-2.3,8.4-4.6,12.9-4.6c4.5,0,7.7,1,9.8,2.9  c2.1,1.8,3.1,4.5,3.1,7.8c0,1.5-0.3,6.4-4.2,10.9c-4,4.5-11.7,8.6-26.5,8.6c-14.8,0-28.8-4.4-42.4-8.8c-13.6-4.4-26.7-4.8-39.8-4.8  c-13.1,0-20.2,4.4-23.9,9.1c-3.7,4.7-4.2,9.7-4.2,10.7c0,1.1-0.7,7.8,5.5,14.2c6,6.3,18.6,12.4,44.8,12.6l0.1,0c0.5,0,1,0.5,1,1  c0,0.1,0,0.1,0,0.2c-0.1,0.2-0.1,0.3-0.1,0.3c-1.1,2.2-3.4,6.5-6.8,10.7c-4.8,6.1-11.8,12.2-20.4,12.2c-6,0-10.7-0.2-14.4-0.4  c-6.2-0.7-14.1-5.7-14.1-5.7s-0.5,0.9,2.1,5.2c0.3,0.6,0.6,1,0.8,1.3c-1.8,1.6-6.3,1.8-6.3,1.8H8.9H8.6c-0.5,0-0.9,0.5-0.9,1  c0,0.3,0.1,0.5,0.2,0.6l0,0.1l0.9,0.9c0.4,0.4,1.7,1.9,1.4,2.5c-0.3,0.6-2.9,0-2.9,0H5.8c-0.6,0-1,0.5-1,1c0,0.3,0.1,0.5,0.3,0.7  l0,0l1,1l0.6,0.6c0,0,1.3,1.5-0.5,2.1l0,0l-2.2,0l-0.1,0c-0.6,0-1,0.5-1,1c0,0.3,0.1,0.5,0.3,0.7l0,0l1.1,1.1c0,0,1.9,3,0.2,6  l-1.6,3l-2.8,5.2l-0.1,0.2c0,0.1-0.1,0.3-0.1,0.4c0,0.6,0.5,1,1,1h2h3.7c0,0-0.2,4.2,1.7,8.9c1.9,4.5,5.6,9.4,13.4,11.4l0.2,0  c0.5,0,0.8-0.3,1-0.7l0-0.2l0.3-1.3l0.5-2.4l5.3,0.9l4.4,0.8c0.5,0,0.9-0.4,1-0.8l0-0.2l0.1-1.7l0.1-1.9c5.7,1.2,9.6,2.2,9.3,5.6  c4.7-7.4-3.5-11.5-6.4-12.4c-1.4-0.8-3.1-1.8-4.7-2.8c-4.6-2.9-9.3-6.3-9.5-8.3c-0.2-2,1.4-4.2,4.1-5.9c2.8-1.7,6.7-2.9,11.3-2.9  c4.6,0,11.7,1,18.1,2.2c6.4,1.1,11.9,2.4,13.4,3c0,0,8.5,4.4,17.9,10.3c8.6,5.4,17.9,12,22.3,17.7l1.8-0.2l0.4-1.3l1.1-3.1  c0,0,2.4,1.9,6.1,3.6c3.4,1.6,7.9,3,12.8,2.7l0.3,0c0.4-0.1,0.8-0.5,0.8-1c0,0,0-0.2-0.1-0.4l-2.4-5l3.2-0.3c4.8,1.1,8,2.2,7.7,5.2  c1.8-2.9,1.7-5.2,0.7-7.1c0-0.2-0.1-0.3-0.3-0.5l0,0c-1.1-1.8-3-3.1-4.7-3.9l0,0c4,0.1,6.7,0.8,8,2.9c1.2-9.2-13.4-10.4-18.2-10.3  c-2.4,0.2-4.2,0.5-5.6,0.8c-2.2-0.6-4.4-1.4-6.3-2.3c-3.9-1.8-6.9-3.9-6.9-5.4c0-1.5,0.6-2.7,2.9-3.7c2.3-0.9,6.2-1.5,12.8-1.5  c6.6,0,12.2-0.4,16.1-2.3c2.3-1.1,4.1-2.9,5.1-5.4c0,0,0,0,0,0s0,0,0,0c0.1-0.4,0.3-0.8,0.4-1.2c0.8-1.6,3.1-4.2,9.1-2.1  c4.1,1.5,7.6,1.3,7.6,3.6l0,0l0,2.3l0,0c0,0.6,0,1.7,0.6,1.7c0,0,5.7,3.6,8.6,0.6c-0.9,1.2-2.1,2.2-3.6,2.6  c-4.1,1.1,9.2,5.8,17.1,1.6l-6.7,6.2c0,0,18.4,3.2,23.2-1.8c0,0,12.9,9.1,16.9,10.9c4.1,1.9,3.3,2.2,5.2,1.3c1.9-1,1.2-3.4,5.6-1.3  c1.2,1.2,2.7,2.5,4.4,3.9c4.4,3.7,10.2,7.5,15.6,8.7l0.3,0c0.4,0,0.8-0.2,0.9-0.6l0-0.1l0.8-2.4l0.1-0.3l0.3-1c0,0,0.3,0.2,0.9,0.5  l0.4,0.2c1.7,0.8,5.1,2.2,9.5,3.2c6.3,1.4,13.4,2.4,20.7-1.8l0.2-0.1c0.3-0.2,0.5-0.5,0.5-0.9c0-0.2,0-0.3-0.1-0.4l-0.1-0.2l-1-1.5  l-1-1.5l-0.1-0.2l-0.6-0.9l1-0.5l0.4-0.2l3.9-1.7l3-1.3l0.4-0.2c0.2-0.2,0.4-0.5,0.4-0.8c0-0.4-0.2-0.7-0.5-0.8l-0.8-0.4l-7.4-3.2  c6.2-3,10.7-4.3,13.3-0.9c-1.9-12.9-16.2-9.4-20.7-7.6c-2.8,1.5-4.7,2.7-5.9,3.8c-2.7,1.2-6.1,2.2-10.1,2.2  c-5.3,0-11.4-4.7-16.3-9.7c-4.9-5-8.6-10.3-9.1-11.4l12.2,1.4l8.6,1c0,0,6.2,1.6,9.4,0.8c3.2-0.8-4.5-1.9-0.4-4.2  c2.1-1.2,7.3,0.2,8.8-0.1c1.5-0.3-2-1.9-1-3.7c1-1.8,7.7-2.5,9.6-3.2c1.9-0.7-4.5-3.4,1.1-8c1.3-0.8,2.9-1.8,4.9-2.7  c6.5-2.9,17.8-5.4,30-4.8c0.6,0,1-0.5,1-1c0-0.3-0.1-0.6-0.4-0.8l-2.6-1.9l-5.2-3.8c6.9-3.6,11.8-5.4,14.6-1.5  C322.8,75.1,314.9,74.2,309,75.3z M264.5,27.2c3-0.7,3.9-1.7,4.2-3.7c0,0,1.7,1,1.2,2.7c-0.4,1.2-1.8,1.7-4,2.1  c0,2.1-1.8,4.3-5.7,3.6c-3.1-0.6-3-2.2-3-2.8c-1.4-0.3-2.5-1.9-2.8-2.2C256.1,27.6,261.6,27.9,264.5,27.2z M228.8,23.3  C228.8,23.3,228.7,23.3,228.8,23.3c0-0.1,0,0,0.1,0C228.9,23.3,228.8,23.3,228.8,23.3z"/>
</svg>