<svg id="Layer_1" data-name="Layer 1" xmlns="http://www.w3.org/2000/svg" viewBox="0 0 371.45 121.04"><defs><style>.cls-1{fill:#263068;}.cls-2{fill:#f7a70b;}</style></defs><rect class="cls-1" x="142.19" y="59.39" width="6.57" height="25.79"/><path class="cls-1" d="M203.42,113.25h5.33v1.94h.13a5.48,5.48,0,0,1,5.17-2.63A7.64,7.64,0,0,1,219,114.3c1.07.82,2.21,2.32,2.21,6.22v12h-5.7V122c0-1.4,0-4-3.07-4-3.29,0-3.29,2.89-3.29,4v10.52h-5.7Z" transform="translate(-50.27 -47.36)"/><polygon class="cls-1" points="181.98 65.89 184.74 65.89 184.74 70.27 181.98 70.27 181.98 85.18 176.18 85.18 176.18 70.27 173.38 70.27 173.38 65.89 176.18 65.89 176.18 59.39 181.98 59.39 181.98 65.89"/><path class="cls-1" d="M250.91,120.64a4.17,4.17,0,0,0-4.37-3.28,4.37,4.37,0,0,0-4.38,3.28Zm5.11,5.78a12.28,12.28,0,0,1-3.88,5,9.32,9.32,0,0,1-5.47,1.59,10.24,10.24,0,1,1,10.05-9.93,4.42,4.42,0,0,1-.17,1.49H242.13a4.36,4.36,0,0,0,4.54,3.64,4,4,0,0,0,3.48-1.82Z" transform="translate(-50.27 -47.36)"/><path class="cls-1" d="M259.84,113.25h5.45v1.94h0c.52-.82,1.48-2.63,4.88-2.63v5.82c-2.7,0-4.56.68-4.56,3.59v10.57h-5.8Z" transform="translate(-50.27 -47.36)"/><path class="cls-1" d="M273.18,113.25h5.43v1.94h0a5.85,5.85,0,0,1,5.27-2.63,7.85,7.85,0,0,1,4.92,1.74c1.08.82,2.21,2.32,2.21,6.22v12h-5.7V122c0-1.4,0-4-3.06-4-3.3,0-3.3,2.89-3.3,4v10.52h-5.8Z" transform="translate(-50.27 -47.36)"/><path class="cls-1" d="M304.75,127.81a4.86,4.86,0,0,0,4.87-5,4.73,4.73,0,0,0-4.89-4.82,4.66,4.66,0,0,0-4.74,4.85c0,1.82,1.29,5,4.76,5m10.58,4.73h-5.71V130.4h-.13c-.94,1.87-3.32,2.66-5.54,2.66-6.15,0-9.67-4.76-9.67-10.26,0-6.26,4.55-10.24,9.67-10.24,3.14,0,4.93,1.49,5.54,2.63h.13v-1.94h5.71Z" transform="translate(-50.27 -47.36)"/><polygon class="cls-1" points="276.35 65.89 279.11 65.89 279.11 70.27 276.35 70.27 276.35 85.18 270.65 85.18 270.65 70.27 267.77 70.27 267.77 65.89 270.65 65.89 270.65 59.39 276.35 59.39 276.35 65.89"/><path class="cls-1" d="M337.71,132.54h-5.8V113.25h5.8Zm0-21.41h-5.8v-4.37h5.8Z" transform="translate(-50.27 -47.36)"/><path class="cls-1" d="M351.28,127.59a4.8,4.8,0,1,0-4.59-4.79,4.64,4.64,0,0,0,4.59,4.79m0-15A10.23,10.23,0,1,1,341,122.8a10,10,0,0,1,10.3-10.23" transform="translate(-50.27 -47.36)"/><path class="cls-1" d="M364.93,113.25h5.43v1.94h0a5.68,5.68,0,0,1,5.26-2.63,7.86,7.86,0,0,1,4.93,1.74c1,.82,2.2,2.32,2.2,6.22v12H377V122c0-1.4,0-4-3-4-3.29,0-3.29,2.89-3.29,4v10.52h-5.81Z" transform="translate(-50.27 -47.36)"/><path class="cls-1" d="M396.5,127.81a4.87,4.87,0,0,0,4.88-5,4.74,4.74,0,0,0-4.9-4.82,4.67,4.67,0,0,0-4.75,4.85c0,1.82,1.3,5,4.77,5m10.58,4.73h-5.7V130.4h-.13c-.94,1.87-3.32,2.66-5.64,2.66-6.05,0-9.67-4.76-9.67-10.26,0-6.26,4.56-10.24,9.67-10.24,3.22,0,4.93,1.49,5.64,2.63h.13v-1.94h5.7Z" transform="translate(-50.27 -47.36)"/><rect class="cls-1" x="361.02" y="59.39" width="5.8" height="25.79"/><path class="cls-1" d="M79.55,111.08a103,103,0,0,0,3.7,25.56H107.8V111.08Z" transform="translate(-50.27 -47.36)"/><path class="cls-1" d="M107.8,73.5V47.37h0C98.37,49.22,90.12,59.15,85,73.5Z" transform="translate(-50.27 -47.36)"/><path class="cls-1" d="M107.41,168.37l.39,0V142.85H85.16c5.1,14,13,23.62,22.25,25.52" transform="translate(-50.27 -47.36)"/><path class="cls-1" d="M113.92,73.5h46.81a60.55,60.55,0,0,0-46.81-26.13Z" transform="translate(-50.27 -47.36)"/><path class="cls-1" d="M113.92,142.86v25.53a59.89,59.89,0,0,0,46.47-25.53Z" transform="translate(-50.27 -47.36)"/><path class="cls-1" d="M73.32,107.88c0-24.69,7.18-45.76,18.06-57.27a60.58,60.58,0,0,0,0,114.73c-10.88-11.69-18.06-32.77-18.06-57.46" transform="translate(-50.27 -47.36)"/><path class="cls-1" d="M107.8,104.87V79.52H83.1a107.61,107.61,0,0,0-3.54,25.35Z" transform="translate(-50.27 -47.36)"/><path class="cls-1" d="M171.42,111.08h-57.5v25.56h50.32a59.87,59.87,0,0,0,7.18-25.56" transform="translate(-50.27 -47.36)"/><path class="cls-1" d="M164.44,79.52H113.92v25.35h57.5a59.82,59.82,0,0,0-7-25.35" transform="translate(-50.27 -47.36)"/><path class="cls-1" d="M142.29,107.88c0,31.31-12.34,57.42-28,60.52a52.64,52.64,0,0,0,16.09-3c11-11.49,18.08-32.77,18.08-57.48s-7.09-45.79-18.08-57.48a68.82,68.82,0,0,0-16.44-3c15.89,3,28.4,29.11,28.4,60.52" transform="translate(-50.27 -47.36)"/><path class="cls-1" d="M79.55,111.08a103,103,0,0,0,3.7,25.56H107.8V111.08Z" transform="translate(-50.27 -47.36)"/><path class="cls-1" d="M107.8,73.5V47.37h0C98.37,49.22,90.12,59.15,85,73.5Z" transform="translate(-50.27 -47.36)"/><path class="cls-1" d="M107.41,168.37l.39,0V142.85H85.16c5.1,14,13,23.62,22.25,25.52" transform="translate(-50.27 -47.36)"/><path class="cls-1" d="M113.92,73.5h46.81a60.55,60.55,0,0,0-46.81-26.13Z" transform="translate(-50.27 -47.36)"/><path class="cls-1" d="M113.92,142.86v25.53a59.89,59.89,0,0,0,46.47-25.53Z" transform="translate(-50.27 -47.36)"/><path class="cls-1" d="M73.32,107.88c0-24.69,7.18-45.76,18.06-57.27a60.58,60.58,0,0,0,0,114.73c-10.88-11.69-18.06-32.77-18.06-57.46" transform="translate(-50.27 -47.36)"/><path class="cls-1" d="M107.8,104.87V79.52H83.1a107.61,107.61,0,0,0-3.54,25.35Z" transform="translate(-50.27 -47.36)"/><path class="cls-1" d="M171.42,111.08h-57.5v25.56h50.32a59.87,59.87,0,0,0,7.18-25.56" transform="translate(-50.27 -47.36)"/><path class="cls-1" d="M164.44,79.52H113.92v25.35h57.5a59.82,59.82,0,0,0-7-25.35" transform="translate(-50.27 -47.36)"/><path class="cls-2" d="M142.29,107.88c0,31.31-12.34,57.42-28,60.52a52.64,52.64,0,0,0,16.09-3c11-11.49,18.08-32.77,18.08-57.48s-7.09-45.79-18.08-57.48a68.82,68.82,0,0,0-16.44-3c15.89,3,28.4,29.11,28.4,60.52" transform="translate(-50.27 -47.36)"/><path class="cls-1" d="M398.29,92.64c7,0,9.52-5.78,9.52-9.74a9.43,9.43,0,0,0-18.85,0c0,5.81,4.06,9.74,9.33,9.74m20,9.17H407.68v-4h-.06c-1,1.51-3.64,5.18-11.15,5.18-11.3,0-18.65-8.75-18.65-19.84,0-12.71,9-19.77,18.46-19.77,6.58,0,9.71,3.07,10.86,4.41V52.11h11.15Z" transform="translate(-50.27 -47.36)"/><path class="cls-1" d="M215.72,91.59c9,0,13.35-8.31,13.35-14.6s-4.37-14.66-13.51-14.66c-8.78,0-13.54,7.6-13.54,14.57,0,7.47,5.14,14.69,13.7,14.69m-.19-40.31c15.24,0,26.19,11.82,26.19,25.68s-10.92,25.68-26.32,25.68c-15.59,0-26-12.43-26-25a26.56,26.56,0,0,1,2-10.6,25.58,25.58,0,0,1,24.19-15.75" transform="translate(-50.27 -47.36)"/><polygon class="cls-1" points="233.97 17.17 221.48 34.42 235.83 54.44 222.25 54.44 214.78 42.82 207.24 54.44 193.85 54.44 207.97 34.42 195.48 17.17 208.84 17.17 214.78 27 220.78 17.17 233.97 17.17"/><path class="cls-1" d="M290.66,73h-4.08V64.53h4.08V62.65c0-10.54,8.79-11.38,14.25-11.38h1.63v8.4h-1.28a3.1,3.1,0,0,0-3.45,3.39v1.47h4.73V73h-4.73v28.85H290.66Z" transform="translate(-50.27 -47.36)"/><path class="cls-1" d="M329.29,92.42a9,9,0,0,0,8.94-9.26,9,9,0,1,0-17.89,0,9,9,0,0,0,9,9.26m0-29c13.54,0,20.09,10.64,20.09,19.78s-6.55,19.77-20.09,19.77-20-10.64-20-19.77,6.45-19.78,20-19.78" transform="translate(-50.27 -47.36)"/><path class="cls-1" d="M355.61,64.53h10.45v4h.06c1-1.81,2.91-5.17,9.33-5.17V74.44c-5.14.06-8.79,1.15-8.79,6.9v20.47H355.61Z" transform="translate(-50.27 -47.36)"/><path class="cls-2" d="M198.93,144.77h3.23v7.76a5.64,5.64,0,0,1-.63,3,4.64,4.64,0,0,1-4.18,2.16,5.33,5.33,0,0,1-2.71-.63c-1.49-.87-2.21-2.06-2.21-4.51v-7.77h3.24v7.72c0,1.58.5,2.35,1.65,2.35s1.61-.55,1.61-2.33Z" transform="translate(-50.27 -47.36)"/><path class="cls-2" d="M212.46,157.44l-4.87-7.74.09,7.74h-3.1V144.77h2.79l4.93,8-.14-8h3.11v12.67Z" transform="translate(-50.27 -47.36)"/><path class="cls-2" d="M217.73,157.44V144.77H221v12.67Z" transform="translate(-50.27 -47.36)"/><path class="cls-2" d="M226.47,157.44l-4.23-12.67h3.32l2.56,8.89h0l2.57-8.89h3.34l-4.25,12.67Z" transform="translate(-50.27 -47.36)"/><path class="cls-2" d="M235.36,157.44V144.77h7v2.84h-3.94v2h3.82v2.84h-3.82v2.18h3.94v2.84Z" transform="translate(-50.27 -47.36)"/><path class="cls-2" d="M250.73,157.44l-2.93-4.09h0v4.09h-3.11V144.77h4.15a7.87,7.87,0,0,1,3,.46,4.2,4.2,0,0,1,2.33,3.91,3.85,3.85,0,0,1-3.15,4l3.44,4.31Zm-1.77-6.3c1.29,0,2.08-.6,2.08-1.82s-.82-1.71-2-1.71h-1.23v3.53Z" transform="translate(-50.27 -47.36)"/><path class="cls-2" d="M261,148.47c-.13-.91-.51-1.24-1.14-1.24a1.07,1.07,0,0,0-1.12,1c0,.75.69,1.09,2.08,1.69,2.79,1.2,3.49,2.21,3.49,3.87,0,2.45-1.68,3.89-4.42,3.89s-4.57-1.44-4.57-4.16v-.27h3.22c0,1,.53,1.73,1.33,1.73a1.21,1.21,0,0,0,1.22-1.22c0-1-1.41-1.46-2.55-1.92-2.08-.84-3-1.93-3-3.58,0-2.16,2.09-3.73,4.42-3.73a4.76,4.76,0,0,1,2.25.53,3.47,3.47,0,0,1,2,3.41Z" transform="translate(-50.27 -47.36)"/><path class="cls-2" d="M266.13,157.44V144.77h3.24v12.67Z" transform="translate(-50.27 -47.36)"/><path class="cls-2" d="M273.09,157.44v-9.83h-2.5v-2.84h8.22v2.84h-2.48v9.83Z" transform="translate(-50.27 -47.36)"/><path class="cls-2" d="M283.34,157.44v-4.6l-3.79-8.07h3.51l1.89,5.08,1.9-5.08h3.48l-3.76,8.07v4.6Z" transform="translate(-50.27 -47.36)"/><path class="cls-2" d="M296.93,157.44V144.77h4.28a7.17,7.17,0,0,1,3,.48,4.06,4.06,0,0,1,2.23,3.8c0,2.35-1.3,4.42-4.93,4.42H300v4Zm4.49-6.81c1.3,0,1.95-.45,1.95-1.53s-.64-1.49-2.07-1.49H300v3Z" transform="translate(-50.27 -47.36)"/><path class="cls-2" d="M315.15,157.44l-.62-1.83h-4.4l-.67,1.83H306l5.09-12.67h2.55l5,12.67Zm-2.78-8.72h-.05L311,153h2.65Z" transform="translate(-50.27 -47.36)"/><path class="cls-2" d="M326,157.44l-2.93-4.09h0v4.09h-3.1V144.77h4.15a7.78,7.78,0,0,1,3,.46,4.19,4.19,0,0,1,2.33,3.91,3.84,3.84,0,0,1-3.15,4l3.45,4.31Zm-1.77-6.3c1.29,0,2.07-.6,2.07-1.82s-.82-1.71-2-1.71H323v3.53Z" transform="translate(-50.27 -47.36)"/><path class="cls-2" d="M332.77,157.44v-9.83h-2.5v-2.84h8.22v2.84H336v9.83Z" transform="translate(-50.27 -47.36)"/><path class="cls-2" d="M347.6,157.44l-4.86-7.74.08,7.74h-3.1V144.77h2.79l4.94,8-.14-8h3.1v12.67Z" transform="translate(-50.27 -47.36)"/><path class="cls-2" d="M352.88,157.44V144.77h7v2.84H356v2h3.82v2.84H356v2.18h3.94v2.84Z" transform="translate(-50.27 -47.36)"/><path class="cls-2" d="M368.25,157.44l-2.93-4.09h0v4.09h-3.1V144.77h4.15a7.87,7.87,0,0,1,3,.46,4.2,4.2,0,0,1,2.33,3.91,3.85,3.85,0,0,1-3.16,4l3.45,4.31Zm-1.77-6.3c1.29,0,2.07-.6,2.07-1.82s-.82-1.71-2-1.71h-1.24v3.53Z" transform="translate(-50.27 -47.36)"/><path class="cls-2" d="M378.47,148.47c-.14-.91-.51-1.24-1.15-1.24a1.06,1.06,0,0,0-1.11,1c0,.75.69,1.09,2.07,1.69,2.8,1.2,3.5,2.21,3.5,3.87,0,2.45-1.68,3.89-4.42,3.89s-4.58-1.44-4.58-4.16v-.27H376c0,1,.54,1.73,1.34,1.73a1.21,1.21,0,0,0,1.22-1.22c0-1-1.41-1.46-2.56-1.92-2.07-.84-3-1.93-3-3.58,0-2.16,2.09-3.73,4.42-3.73a4.69,4.69,0,0,1,2.24.53,3.44,3.44,0,0,1,2,3.41Z" transform="translate(-50.27 -47.36)"/><path class="cls-2" d="M391,157.44v-5.07h-4.15v5.07h-3.24V144.77h3.24v4.76H391v-4.76h3.23v12.67Z" transform="translate(-50.27 -47.36)"/><path class="cls-2" d="M396.71,157.44V144.77H400v12.67Z" transform="translate(-50.27 -47.36)"/><path class="cls-2" d="M402.38,157.44V144.77h4.29a7.17,7.17,0,0,1,3,.48,4.06,4.06,0,0,1,2.23,3.8c0,2.35-1.31,4.42-4.94,4.42h-1.51v4Zm4.49-6.81c1.3,0,1.95-.45,1.95-1.53s-.63-1.49-2.07-1.49h-1.27v3Z" transform="translate(-50.27 -47.36)"/><path class="cls-2" d="M418.41,148.47c-.14-.91-.52-1.24-1.15-1.24a1.06,1.06,0,0,0-1.11,1c0,.75.68,1.09,2.07,1.69,2.79,1.2,3.49,2.21,3.49,3.87,0,2.45-1.67,3.89-4.42,3.89s-4.57-1.44-4.57-4.16v-.27h3.22c0,1,.53,1.73,1.34,1.73a1.2,1.2,0,0,0,1.21-1.22c0-1-1.4-1.46-2.55-1.92-2.07-.84-3-1.93-3-3.58,0-2.16,2.09-3.73,4.42-3.73a4.72,4.72,0,0,1,2.24.53,3.47,3.47,0,0,1,2,3.41Z" transform="translate(-50.27 -47.36)"/></svg>