<svg xmlns="http://www.w3.org/2000/svg" data-name="Layer 1" viewBox="0 0 122.88 119.39">
  <path d="M15.33 0h72.51a15.36 15.36 0 0 1 15.33 15.33v44.05a15.36 15.36 0 0 1-15.33 15.33h-46l-23.28 20a2.58 2.58 0 0 1-3.64-.29 2.54 2.54 0 0 1-.61-1.84l1.22-17.88h-.2A15.36 15.36 0 0 1 0 59.38V15.33A15.36 15.36 0 0 1 15.33 0Zm95.36 32.33a15.09 15.09 0 0 1 12.19 14.75v36.66a15.07 15.07 0 0 1-15 15h-.54l1.25 18.26a2.27 2.27 0 0 1-3.73 1.87l-23.37-20.7H31.2l15.16-15.42H98A12.78 12.78 0 0 0 110.73 70V32.34ZM30.42 47.58a2.59 2.59 0 1 1 0-5.17h34a2.59 2.59 0 1 1 0 5.17Zm0-17.73a2.59 2.59 0 1 1 0-5.17h45.29a2.59 2.59 0 1 1 0 5.17ZM87.83 5.17h-72.5A10.17 10.17 0 0 0 5.17 15.33v44.05a10.19 10.19 0 0 0 10.16 10.16h3.15a2.58 2.58 0 0 1 2.39 2.74l-1 14.49 19.19-16.5a2.6 2.6 0 0 1 1.82-.75h46.95A10.21 10.21 0 0 0 98 59.38V15.33A10.19 10.19 0 0 0 87.83 5.17Z"/>
</svg>
